# xmcd
#
# Track frame offsets: 
#        150
#        21018
#        38909
#        58835
#        81623
#        102444
#        116104
#        141034
#        202845
#        222825
#
# Disc length: 3571 seconds
#
# Revision: 0
# Processed by: cddbd v1.5.2PL0 Copyright (c) Steve Scherf et al.
# Submitted via: ExactAudioCopyFreeDBPlugin 1.0
#
DISCID=900df10a
DTITLE=Witherscape - The Northern Sanctuary (full dynamic mix)
DYEAR=2016
DGENRE=Progressive Metal
TTITLE0=Wake of Infinity
TTITLE1=In the Eyes of Idols
TTITLE2=Rapture Ballet
TTITLE3=The Examiner
TTITLE4=Marionette
TTITLE5=Divinity
TTITLE6=God of Ruin
TTITLE7=The Northern Sanctuary
TTITLE8=Vila i Frid
TTITLE9=data track - instrumental mix
EXTD=
EXTT0=
EXTT1=
EXTT2=
EXTT3=
EXTT4=
EXTT5=
EXTT6=
EXTT7=
EXTT8=
EXTT9=
PLAYORDER=
